<svg width="20" height="20" viewBox="0 0 20 20" fill="none" xmlns="http://www.w3.org/2000/svg">
<path fill-rule="evenodd" clip-rule="evenodd" d="M19.1673 13.7969V6.20296L13.7976 0.833252H6.20369L0.833984 6.20296V13.7969L6.20369 19.1666H13.7976L19.1673 13.7969ZM6.89405 2.49992H13.1073L17.5007 6.89332V13.1065L13.1073 17.4999H6.89405L2.50065 13.1065V6.89332L6.89405 2.49992ZM10.0009 14.9985C10.4613 14.9985 10.8345 14.6254 10.8345 14.1652C10.8345 13.705 10.4613 13.3319 10.0009 13.3319C9.54054 13.3319 9.16732 13.705 9.16732 14.1652C9.16732 14.6254 9.54054 14.9985 10.0009 14.9985ZM10.837 4.99854H9.16978V11.6652H10.837V4.99854Z" fill="#BDBDBD"/>
</svg>
