<svg width="20" height="20" viewBox="0 0 20 20" fill="none" xmlns="http://www.w3.org/2000/svg">
<path fill-rule="evenodd" clip-rule="evenodd" d="M2 7.00022H3.99978C4.00007 7.36676 4.20262 7.71956 4.55279 7.89465C5.04676 8.14164 5.64744 7.94141 5.89443 7.44743L6.11803 7.00022H13.882L14.1056 7.44743C14.3526 7.94141 14.9532 8.14164 15.4472 7.89465C15.7974 7.71956 15.9999 7.36676 16.0002 7.00022H18V9.00022H2V7.00022ZM15.118 5.00022H18C19.1046 5.00022 20 5.89565 20 7.00022V9.00022C20 9.84024 19.4821 10.5593 18.7482 10.8556C18.7516 10.9033 18.7534 10.9516 18.7534 11.0002C18.7534 11.1461 18.7374 11.2916 18.7058 11.4341L17.1502 18.4341C16.9469 19.3492 16.1352 20.0002 15.1978 20.0002H4.80217C3.86477 20.0002 3.05315 19.3492 2.8498 18.4341L1.29424 11.4341C1.25095 11.2392 1.23767 11.0447 1.25134 10.8554C0.517673 10.559 0 9.84007 0 9.00022V7.00022C0 5.89565 0.89543 5.00022 2 5.00022H4.88197L7.10557 0.553005C7.35256 0.059027 7.95323 -0.141197 8.44721 0.105792C8.94119 0.352781 9.14142 0.953454 8.89443 1.44743L7.11803 5.00022H12.882L11.1056 1.44743C10.8586 0.953454 11.0588 0.352781 11.5528 0.105792C12.0468 -0.141197 12.6474 0.059027 12.8944 0.553005L15.118 5.00022ZM3.24662 11.0002H16.7534L15.1978 18.0002H4.80217L3.24662 11.0002Z" fill="#2E363E"/>
</svg>
