<svg width="31" height="33" viewBox="0 0 31 33" fill="none" xmlns="http://www.w3.org/2000/svg">
<path fill-rule="evenodd" clip-rule="evenodd" d="M11.1253 0.458496H19.8753C21.4862 0.458496 22.792 1.76433 22.792 3.37516V4.8335H27.167C28.7778 4.8335 30.0837 6.13933 30.0837 7.75016V10.6668C30.0837 12.2777 28.7778 13.5835 27.167 13.5835H27.0501L25.7087 29.6252C25.7087 31.236 24.4028 32.5418 22.792 32.5418H8.20866C6.59783 32.5418 5.29199 31.236 5.29703 29.7463L3.95013 13.5835H3.83366C2.22283 13.5835 0.916992 12.2777 0.916992 10.6668V7.75016C0.916992 6.13933 2.22283 4.8335 3.83366 4.8335H8.20866V3.37516C8.20866 1.76433 9.51449 0.458496 11.1253 0.458496ZM3.83366 7.75016L8.20866 7.75016H22.792L27.167 7.75016V10.6668H3.83366V7.75016ZM6.87646 13.5835H24.1237L22.797 29.5041L22.792 29.6252H8.20866L6.87646 13.5835ZM19.8753 3.37516V4.8335H11.1253V3.37516H19.8753Z" fill="#3E17B4"/>
</svg>
